# xmcd CD database file
#
# Track frame offsets:
#	150
#	17999
#	46218
#	74172
#	99684
#	122326
#	148856
#	176967
#
# Disc length: 2722 seconds
#
# Revision: 0
# Processed by: cddbd v1.5.2PL0 Copyright (c) Steve Scherf et al.
# Submitted via: CDex 1.51
#
DISCID=790aa008
DTITLE=Arnd Stein - Yoga-Musik 1
DYEAR=2012
DGENRE=New Age
TTITLE0=Evening Star
TTITLE1=Energy Of The Universe
TTITLE2=Shavasana
TTITLE3=Silent Ocean
TTITLE4=Dhyana
TTITLE5=Open Mind
TTITLE6=Muktasana
TTITLE7=Inner Balance
EXTD=YEAR: 2012
EXTT0=
EXTT1=
EXTT2=
EXTT3=
EXTT4=
EXTT5=
EXTT6=
EXTT7=
PLAYORDER=
